# xmcd
#
# Track frame offsets:
# 150
# 68894
# 125550
# 178397
#
# Disc length: 3251 seconds
#
# Revision: 0
# Processed by: cddbd v1.5.2PL0 Copyright (c) Steve Scherf et al.
# Submitted via: Audion 3.0.2 (http://www.panic.com/audion/)
#
DISCID=3a0cb104
DTITLE=Jerry Bergonzi Copenhagen 16.12 .96 - Jerry Bergonzi Copenhagen 16.12 .96
DYEAR=1900
DGENRE=
TTITLE0=1
TTITLE1=2
TTITLE2=3
TTITLE3=4
EXTD=
EXTT0=
EXTT1=
EXTT2=
EXTT3=
PLAYORDER=
